<?xml version="1.0" encoding="UTF-8" standalone="no"?>
<!DOCTYPE svg PUBLIC "-//W3C//DTD SVG 1.1//EN" "http://www.w3.org/Graphics/SVG/1.1/DTD/svg11.dtd">
<svg width="100%" height="100%" viewBox="0 0 253 204" version="1.1" xmlns="http://www.w3.org/2000/svg" xmlns:xlink="http://www.w3.org/1999/xlink" xml:space="preserve" xmlns:serif="http://www.serif.com/" style="fill-rule:evenodd;clip-rule:evenodd;stroke-linecap:round;stroke-linejoin:round;stroke-miterlimit:1.5;">
    <g id="logo" transform="matrix(1,0,0,1,-164.154,-356.32)">
        <g id="p3" transform="matrix(1,0,0,1,-7,0)">
            <path d="M191.378,558.779L171.654,528.032L274.917,357.28L362.126,500.573L326.549,500.573L275.78,420.693L191.378,558.779Z" style="fill:rgb(120,144,156);stroke:rgb(120,144,156);stroke-width:1px;"/>
        </g>
        <g id="p2" transform="matrix(1,0,0,1,-7,0)">
            <path d="M275.691,357.28L362.512,500.766L260.723,500.395L241.541,532.752L423.479,533.14L318.463,356.82L275.691,357.28Z" style="fill:rgb(84,110,122);fill-opacity:0.99;stroke:rgb(84,110,122);stroke-width:1px;"/>
        </g>
        <g id="p1" transform="matrix(1,0,0,1,-7,0)">
            <path d="M423.045,533.06L405.448,559.166L192.152,558.779L275.691,421.481L292.321,447.78L241.076,533.447L423.045,533.06Z" style="fill:rgb(38,50,56);fill-opacity:0.99;stroke:rgb(38,50,56);stroke-width:1px;"/>
        </g>
    </g>
</svg>
