<?xml version="1.0" encoding="UTF-8" standalone="no"?>
<!DOCTYPE svg PUBLIC "-//W3C//DTD SVG 1.1//EN" "http://www.w3.org/Graphics/SVG/1.1/DTD/svg11.dtd">
<svg width="100%" height="100%" viewBox="0 0 691 292" version="1.1" xmlns="http://www.w3.org/2000/svg" xmlns:xlink="http://www.w3.org/1999/xlink" xml:space="preserve" xmlns:serif="http://www.serif.com/" style="fill-rule:evenodd;clip-rule:evenodd;stroke-linecap:round;stroke-linejoin:round;stroke-miterlimit:1.5;">
    <g id="traffic-safety" transform="matrix(1,0,0,1,-206.535,-433.777)">
        <path id="t" d="M223.335,711.162L223.335,668.252L206.535,668.252L206.535,662.162L247.065,662.162L247.065,668.252L230.265,668.252L230.265,711.162L223.335,711.162Z" style="fill:rgb(176,190,197);fill-rule:nonzero;"/>
        <path id="r" d="M252.805,711.162L252.805,674.062L259.245,674.062L259.245,684.142L258.615,681.622C259.642,679.056 261.369,677.096 263.795,675.742C266.222,674.389 269.209,673.712 272.755,673.712L272.755,680.222C272.475,680.176 272.207,680.152 271.95,680.152L271.215,680.152C267.622,680.152 264.775,681.226 262.675,683.372C260.575,685.519 259.525,688.622 259.525,692.682L259.525,711.162L252.805,711.162Z" style="fill:rgb(176,190,197);fill-rule:nonzero;"/>
        <path id="a" d="M301.525,711.162L301.525,703.322L301.175,701.852L301.175,688.482C301.175,685.636 300.347,683.431 298.69,681.867C297.034,680.304 294.549,679.522 291.235,679.522C289.042,679.522 286.895,679.884 284.795,680.607C282.695,681.331 280.922,682.299 279.475,683.512L276.675,678.472C278.589,676.932 280.887,675.754 283.57,674.937C286.254,674.121 289.065,673.712 292.005,673.712C297.092,673.712 301.012,674.949 303.765,677.422C306.519,679.896 307.895,683.676 307.895,688.762L307.895,711.162L301.525,711.162ZM289.345,711.582C286.592,711.582 284.177,711.116 282.1,710.182C280.024,709.249 278.425,707.954 277.305,706.297C276.185,704.641 275.625,702.762 275.625,700.662C275.625,698.656 276.104,696.836 277.06,695.202C278.017,693.569 279.58,692.262 281.75,691.282C283.92,690.302 286.849,689.812 290.535,689.812L302.295,689.812L302.295,694.642L290.815,694.642C287.455,694.642 285.192,695.202 284.025,696.322C282.859,697.442 282.275,698.796 282.275,700.382C282.275,702.202 282.999,703.661 284.445,704.757C285.892,705.854 287.899,706.402 290.465,706.402C292.985,706.402 295.19,705.842 297.08,704.722C298.97,703.602 300.335,701.969 301.175,699.822L302.505,704.442C301.619,706.636 300.055,708.374 297.815,709.657C295.575,710.941 292.752,711.582 289.345,711.582Z" style="fill:rgb(176,190,197);fill-rule:nonzero;"/>
        <path id="f" d="M321.335,711.162L321.335,670.772C321.335,667.132 322.397,664.227 324.52,662.057C326.644,659.887 329.665,658.802 333.585,658.802C335.032,658.802 336.42,658.977 337.75,659.327C339.08,659.677 340.212,660.226 341.145,660.972L339.115,666.082C338.415,665.522 337.622,665.091 336.735,664.787C335.849,664.484 334.915,664.332 333.935,664.332C331.975,664.332 330.482,664.881 329.455,665.977C328.429,667.074 327.915,668.696 327.915,670.842L327.915,675.812L328.055,678.892L328.055,711.162L321.335,711.162ZM315.035,679.592L315.035,674.062L338.695,674.062L338.695,679.592L315.035,679.592Z" style="fill:rgb(176,190,197);fill-rule:nonzero;"/>
        <g id="f1" serif:id="f" transform="matrix(1,0,0,1,26,0)">
            <path d="M321.335,711.162L321.335,670.772C321.335,667.132 322.397,664.227 324.52,662.057C326.644,659.887 329.665,658.802 333.585,658.802C335.032,658.802 336.42,658.977 337.75,659.327C339.08,659.677 340.212,660.226 341.145,660.972L339.115,666.082C338.415,665.522 337.622,665.091 336.735,664.787C335.849,664.484 334.915,664.332 333.935,664.332C331.975,664.332 330.482,664.881 329.455,665.977C328.429,667.074 327.915,668.696 327.915,670.842L327.915,675.812L328.055,678.892L328.055,711.162L321.335,711.162ZM315.035,679.592L315.035,674.062L338.695,674.062L338.695,679.592L315.035,679.592Z" style="fill:rgb(176,190,197);fill-rule:nonzero;"/>
        </g>
        <path id="i" d="M369.775,711.162L369.775,674.062L376.495,674.062L376.495,711.162L369.775,711.162ZM373.205,666.922C371.899,666.922 370.814,666.502 369.95,665.662C369.087,664.822 368.655,663.796 368.655,662.582C368.655,661.322 369.087,660.272 369.95,659.432C370.814,658.592 371.899,658.172 373.205,658.172C374.512,658.172 375.597,658.581 376.46,659.397C377.324,660.214 377.755,661.229 377.755,662.442C377.755,663.702 377.335,664.764 376.495,665.627C375.655,666.491 374.559,666.922 373.205,666.922Z" style="fill:rgb(176,190,197);fill-rule:nonzero;"/>
        <path id="c" d="M405.475,711.582C401.695,711.582 398.324,710.766 395.36,709.132C392.397,707.499 390.075,705.259 388.395,702.412C386.715,699.566 385.875,696.299 385.875,692.612C385.875,688.926 386.715,685.659 388.395,682.812C390.075,679.966 392.397,677.737 395.36,676.127C398.324,674.517 401.695,673.712 405.475,673.712C408.835,673.712 411.834,674.377 414.47,675.707C417.107,677.037 419.149,679.009 420.595,681.622L415.485,684.912C414.272,683.092 412.79,681.751 411.04,680.887C409.29,680.024 407.412,679.592 405.405,679.592C402.979,679.592 400.809,680.129 398.895,681.202C396.982,682.276 395.465,683.781 394.345,685.717C393.225,687.654 392.665,689.952 392.665,692.612C392.665,695.272 393.225,697.582 394.345,699.542C395.465,701.502 396.982,703.019 398.895,704.092C400.809,705.166 402.979,705.702 405.405,705.702C407.412,705.702 409.29,705.271 411.04,704.407C412.79,703.544 414.272,702.202 415.485,700.382L420.595,703.602C419.149,706.169 417.107,708.141 414.47,709.517C411.834,710.894 408.835,711.582 405.475,711.582Z" style="fill:rgb(176,190,197);fill-rule:nonzero;"/>
        <path id="s" d="M463.365,711.722C459.632,711.722 456.062,711.151 452.655,710.007C449.249,708.864 446.565,707.382 444.605,705.562L447.195,700.102C449.062,701.736 451.442,703.089 454.335,704.162C457.229,705.236 460.239,705.772 463.365,705.772C466.212,705.772 468.522,705.446 470.295,704.792C472.069,704.139 473.375,703.241 474.215,702.097C475.055,700.954 475.475,699.659 475.475,698.212C475.475,696.532 474.927,695.179 473.83,694.152C472.734,693.126 471.31,692.297 469.56,691.667C467.81,691.037 465.885,690.489 463.785,690.022C461.685,689.556 459.574,689.007 457.45,688.377C455.327,687.747 453.39,686.942 451.64,685.962C449.89,684.982 448.479,683.664 447.405,682.007C446.332,680.351 445.795,678.216 445.795,675.602C445.795,673.082 446.46,670.761 447.79,668.637C449.12,666.514 451.174,664.811 453.95,663.527C456.727,662.244 460.262,661.602 464.555,661.602C467.402,661.602 470.225,661.976 473.025,662.722C475.825,663.469 478.252,664.542 480.305,665.942L477.995,671.542C475.895,670.142 473.679,669.127 471.345,668.497C469.012,667.867 466.749,667.552 464.555,667.552C461.802,667.552 459.539,667.902 457.765,668.602C455.992,669.302 454.697,670.236 453.88,671.402C453.064,672.569 452.655,673.876 452.655,675.322C452.655,677.049 453.204,678.426 454.3,679.452C455.397,680.479 456.82,681.296 458.57,681.902C460.32,682.509 462.245,683.057 464.345,683.547C466.445,684.037 468.557,684.586 470.68,685.192C472.804,685.799 474.74,686.592 476.49,687.572C478.24,688.552 479.652,689.859 480.725,691.492C481.799,693.126 482.335,695.226 482.335,697.792C482.335,700.266 481.659,702.564 480.305,704.687C478.952,706.811 476.864,708.514 474.04,709.797C471.217,711.081 467.659,711.722 463.365,711.722Z" style="fill:rgb(176,190,197);fill-rule:nonzero;"/>
        <path id="a1" serif:id="a" d="M514.605,711.162L514.605,703.322L514.255,701.852L514.255,688.482C514.255,685.636 513.427,683.431 511.77,681.867C510.114,680.304 507.629,679.522 504.315,679.522C502.122,679.522 499.975,679.884 497.875,680.607C495.775,681.331 494.002,682.299 492.555,683.512L489.755,678.472C491.669,676.932 493.967,675.754 496.65,674.937C499.334,674.121 502.145,673.712 505.085,673.712C510.172,673.712 514.092,674.949 516.845,677.422C519.599,679.896 520.975,683.676 520.975,688.762L520.975,711.162L514.605,711.162ZM502.425,711.582C499.672,711.582 497.257,711.116 495.18,710.182C493.104,709.249 491.505,707.954 490.385,706.297C489.265,704.641 488.705,702.762 488.705,700.662C488.705,698.656 489.184,696.836 490.14,695.202C491.097,693.569 492.66,692.262 494.83,691.282C497,690.302 499.929,689.812 503.615,689.812L515.375,689.812L515.375,694.642L503.895,694.642C500.535,694.642 498.272,695.202 497.105,696.322C495.939,697.442 495.355,698.796 495.355,700.382C495.355,702.202 496.079,703.661 497.525,704.757C498.972,705.854 500.979,706.402 503.545,706.402C506.065,706.402 508.27,705.842 510.16,704.722C512.05,703.602 513.415,701.969 514.255,699.822L515.585,704.442C514.699,706.636 513.135,708.374 510.895,709.657C508.655,710.941 505.832,711.582 502.425,711.582Z" style="fill:rgb(176,190,197);fill-rule:nonzero;"/>
        <path id="f2" serif:id="f" d="M534.415,711.162L534.415,670.772C534.415,667.132 535.477,664.227 537.6,662.057C539.724,659.887 542.745,658.802 546.665,658.802C548.112,658.802 549.5,658.977 550.83,659.327C552.16,659.677 553.292,660.226 554.225,660.972L552.195,666.082C551.495,665.522 550.702,665.091 549.815,664.787C548.929,664.484 547.995,664.332 547.015,664.332C545.055,664.332 543.562,664.881 542.535,665.977C541.509,667.074 540.995,668.696 540.995,670.842L540.995,675.812L541.135,678.892L541.135,711.162L534.415,711.162ZM528.115,679.592L528.115,674.062L551.775,674.062L551.775,679.592L528.115,679.592Z" style="fill:rgb(176,190,197);fill-rule:nonzero;"/>
        <path id="e" d="M574.105,711.582C570.139,711.582 566.65,710.766 563.64,709.132C560.63,707.499 558.297,705.259 556.64,702.412C554.984,699.566 554.155,696.299 554.155,692.612C554.155,688.926 554.96,685.659 556.57,682.812C558.18,679.966 560.397,677.737 563.22,676.127C566.044,674.517 569.229,673.712 572.775,673.712C576.369,673.712 579.542,674.506 582.295,676.092C585.049,677.679 587.207,679.907 588.77,682.777C590.334,685.647 591.115,688.996 591.115,692.822C591.115,693.102 591.104,693.429 591.08,693.802C591.057,694.176 591.022,694.526 590.975,694.852L559.405,694.852L559.405,690.022L587.475,690.022L584.745,691.702C584.792,689.322 584.302,687.199 583.275,685.332C582.249,683.466 580.837,682.007 579.04,680.957C577.244,679.907 575.155,679.382 572.775,679.382C570.442,679.382 568.365,679.907 566.545,680.957C564.725,682.007 563.302,683.477 562.275,685.367C561.249,687.257 560.735,689.416 560.735,691.842L560.735,692.962C560.735,695.436 561.307,697.641 562.45,699.577C563.594,701.514 565.192,703.019 567.245,704.092C569.299,705.166 571.655,705.702 574.315,705.702C576.509,705.702 578.504,705.329 580.3,704.582C582.097,703.836 583.672,702.716 585.025,701.222L588.735,705.562C587.055,707.522 584.967,709.016 582.47,710.042C579.974,711.069 577.185,711.582 574.105,711.582Z" style="fill:rgb(176,190,197);fill-rule:nonzero;"/>
        <path id="t1" serif:id="t" d="M613.165,711.582C609.432,711.582 606.539,710.579 604.485,708.572C602.432,706.566 601.405,703.696 601.405,699.962L601.405,665.942L608.125,665.942L608.125,699.682C608.125,701.689 608.627,703.229 609.63,704.302C610.634,705.376 612.069,705.912 613.935,705.912C616.035,705.912 617.785,705.329 619.185,704.162L621.285,708.992C620.259,709.879 619.034,710.532 617.61,710.952C616.187,711.372 614.705,711.582 613.165,711.582ZM595.105,679.592L595.105,674.062L618.765,674.062L618.765,679.592L595.105,679.592Z" style="fill:rgb(176,190,197);fill-rule:nonzero;"/>
        <path id="y" d="M628.355,725.162C626.582,725.162 624.855,724.871 623.175,724.287C621.495,723.704 620.049,722.852 618.835,721.732L621.705,716.692C622.639,717.579 623.665,718.256 624.785,718.722C625.905,719.189 627.095,719.422 628.355,719.422C629.989,719.422 631.342,719.002 632.415,718.162C633.489,717.322 634.492,715.829 635.425,713.682L637.735,708.572L638.435,707.732L652.995,674.062L659.575,674.062L641.585,714.872C640.512,717.486 639.31,719.539 637.98,721.032C636.65,722.526 635.192,723.587 633.605,724.217C632.019,724.847 630.269,725.162 628.355,725.162ZM637.175,712.352L620.235,674.062L627.235,674.062L641.655,707.102L637.175,712.352Z" style="fill:rgb(176,190,197);fill-rule:nonzero;"/>
        <path id="g" d="M707.805,711.722C704.025,711.722 700.549,711.104 697.375,709.867C694.202,708.631 691.449,706.881 689.115,704.617C686.782,702.354 684.962,699.706 683.655,696.672C682.349,693.639 681.695,690.302 681.695,686.662C681.695,683.022 682.349,679.686 683.655,676.652C684.962,673.619 686.794,670.971 689.15,668.707C691.507,666.444 694.272,664.694 697.445,663.457C700.619,662.221 704.119,661.602 707.945,661.602C711.819,661.602 715.365,662.232 718.585,663.492C721.805,664.752 724.535,666.642 726.775,669.162L722.435,673.502C720.429,671.542 718.247,670.107 715.89,669.197C713.534,668.287 710.979,667.832 708.225,667.832C705.425,667.832 702.824,668.299 700.42,669.232C698.017,670.166 695.94,671.472 694.19,673.152C692.44,674.832 691.087,676.827 690.13,679.137C689.174,681.447 688.695,683.956 688.695,686.662C688.695,689.322 689.174,691.807 690.13,694.117C691.087,696.427 692.44,698.434 694.19,700.137C695.94,701.841 698.005,703.159 700.385,704.092C702.765,705.026 705.355,705.492 708.155,705.492C710.769,705.492 713.277,705.084 715.68,704.267C718.084,703.451 720.312,702.086 722.365,700.172L726.355,705.492C723.929,707.546 721.094,709.097 717.85,710.147C714.607,711.197 711.259,711.722 707.805,711.722ZM726.355,705.492L719.635,704.582L719.635,686.382L726.355,686.382L726.355,705.492Z" style="fill:rgb(176,190,197);fill-rule:nonzero;"/>
        <path id="r1" serif:id="r" d="M738.745,711.162L738.745,674.062L745.185,674.062L745.185,684.142L744.555,681.622C745.582,679.056 747.309,677.096 749.735,675.742C752.162,674.389 755.149,673.712 758.695,673.712L758.695,680.222C758.415,680.176 758.147,680.152 757.89,680.152L757.155,680.152C753.562,680.152 750.715,681.226 748.615,683.372C746.515,685.519 745.465,688.622 745.465,692.682L745.465,711.162L738.745,711.162Z" style="fill:rgb(176,190,197);fill-rule:nonzero;"/>
        <path id="o" d="M782.495,711.582C778.762,711.582 775.449,710.766 772.555,709.132C769.662,707.499 767.375,705.247 765.695,702.377C764.015,699.507 763.175,696.252 763.175,692.612C763.175,688.926 764.015,685.659 765.695,682.812C767.375,679.966 769.662,677.737 772.555,676.127C775.449,674.517 778.762,673.712 782.495,673.712C786.182,673.712 789.484,674.517 792.4,676.127C795.317,677.737 797.604,679.954 799.26,682.777C800.917,685.601 801.745,688.879 801.745,692.612C801.745,696.299 800.917,699.566 799.26,702.412C797.604,705.259 795.317,707.499 792.4,709.132C789.484,710.766 786.182,711.582 782.495,711.582ZM782.495,705.702C784.875,705.702 787.01,705.166 788.9,704.092C790.79,703.019 792.272,701.491 793.345,699.507C794.419,697.524 794.955,695.226 794.955,692.612C794.955,689.952 794.419,687.654 793.345,685.717C792.272,683.781 790.79,682.276 788.9,681.202C787.01,680.129 784.875,679.592 782.495,679.592C780.115,679.592 777.992,680.129 776.125,681.202C774.259,682.276 772.765,683.781 771.645,685.717C770.525,687.654 769.965,689.952 769.965,692.612C769.965,695.226 770.525,697.524 771.645,699.507C772.765,701.491 774.259,703.019 776.125,704.092C777.992,705.166 780.115,705.702 782.495,705.702Z" style="fill:rgb(176,190,197);fill-rule:nonzero;"/>
        <path id="u" d="M826.665,711.582C823.492,711.582 820.704,710.999 818.3,709.832C815.897,708.666 814.03,706.881 812.7,704.477C811.37,702.074 810.705,699.052 810.705,695.412L810.705,674.062L817.425,674.062L817.425,694.642C817.425,698.282 818.3,701.012 820.05,702.832C821.8,704.652 824.262,705.562 827.435,705.562C829.769,705.562 831.799,705.084 833.525,704.127C835.252,703.171 836.582,701.771 837.515,699.927C838.449,698.084 838.915,695.856 838.915,693.242L838.915,674.062L845.635,674.062L845.635,711.162L839.265,711.162L839.265,701.152L840.315,703.812C839.102,706.286 837.282,708.199 834.855,709.552C832.429,710.906 829.699,711.582 826.665,711.582Z" style="fill:rgb(176,190,197);fill-rule:nonzero;"/>
        <path id="p" d="M878.115,711.582C875.035,711.582 872.224,710.871 869.68,709.447C867.137,708.024 865.107,705.912 863.59,703.112C862.074,700.312 861.315,696.812 861.315,692.612C861.315,688.412 862.05,684.912 863.52,682.112C864.99,679.312 866.997,677.212 869.54,675.812C872.084,674.412 874.942,673.712 878.115,673.712C881.755,673.712 884.975,674.506 887.775,676.092C890.575,677.679 892.792,679.884 894.425,682.707C896.059,685.531 896.875,688.832 896.875,692.612C896.875,696.392 896.059,699.706 894.425,702.552C892.792,705.399 890.575,707.616 887.775,709.202C884.975,710.789 881.755,711.582 878.115,711.582ZM858.445,724.742L858.445,674.062L864.885,674.062L864.885,684.072L864.465,692.682L865.165,701.292L865.165,724.742L858.445,724.742ZM877.555,705.702C879.935,705.702 882.07,705.166 883.96,704.092C885.85,703.019 887.344,701.491 888.44,699.507C889.537,697.524 890.085,695.226 890.085,692.612C890.085,689.952 889.537,687.654 888.44,685.717C887.344,683.781 885.85,682.276 883.96,681.202C882.07,680.129 879.935,679.592 877.555,679.592C875.222,679.592 873.11,680.129 871.22,681.202C869.33,682.276 867.837,683.781 866.74,685.717C865.644,687.654 865.095,689.952 865.095,692.612C865.095,695.226 865.644,697.524 866.74,699.507C867.837,701.491 869.33,703.019 871.22,704.092C873.11,705.166 875.222,705.702 877.555,705.702Z" style="fill:rgb(176,190,197);fill-rule:nonzero;"/>
    </g>
    <g id="tsg" transform="matrix(1.57735,0,0,1.57735,-155.28,-124.105)">
        <path id="t2" serif:id="t" d="M299.611,202.663L299.611,114.391L265.051,114.391L265.051,101.863L348.427,101.863L348.427,114.391L313.867,114.391L313.867,202.663L299.611,202.663Z" style="fill:rgb(38,50,56);fill-rule:nonzero;"/>
        <path id="s1" serif:id="s" d="M392.203,203.815C384.523,203.815 377.179,202.639 370.171,200.287C363.163,197.935 357.643,194.887 353.611,191.143L358.939,179.911C362.779,183.271 367.675,186.055 373.627,188.263C379.579,190.471 385.771,191.575 392.203,191.575C398.059,191.575 402.811,190.903 406.459,189.559C410.107,188.215 412.795,186.367 414.523,184.015C416.251,181.663 417.115,178.999 417.115,176.023C417.115,172.567 415.987,169.783 413.731,167.671C411.475,165.559 408.547,163.855 404.947,162.559C401.347,161.263 397.387,160.135 393.067,159.175C388.747,158.215 384.403,157.087 380.035,155.791C375.667,154.495 371.683,152.839 368.083,150.823C364.483,148.807 361.579,146.095 359.371,142.687C357.163,139.279 356.059,134.887 356.059,129.511C356.059,124.327 357.427,119.551 360.163,115.183C362.899,110.815 367.123,107.311 372.835,104.671C378.547,102.031 385.819,100.711 394.651,100.711C400.507,100.711 406.315,101.479 412.075,103.015C417.835,104.551 422.827,106.759 427.051,109.639L422.299,121.159C417.979,118.279 413.419,116.191 408.619,114.895C403.819,113.599 399.163,112.951 394.651,112.951C388.987,112.951 384.331,113.671 380.683,115.111C377.035,116.551 374.371,118.471 372.691,120.871C371.011,123.271 370.171,125.959 370.171,128.935C370.171,132.487 371.299,135.319 373.555,137.431C375.811,139.543 378.739,141.223 382.339,142.471C385.939,143.719 389.899,144.847 394.219,145.855C398.539,146.863 402.883,147.991 407.251,149.239C411.619,150.487 415.603,152.119 419.203,154.135C422.803,156.151 425.707,158.839 427.915,162.199C430.123,165.559 431.227,169.879 431.227,175.159C431.227,180.247 429.835,184.975 427.051,189.343C424.267,193.711 419.971,197.215 414.163,199.855C408.355,202.495 401.035,203.815 392.203,203.815Z" style="fill:rgb(38,50,56);fill-rule:nonzero;"/>
        <path id="g1" serif:id="g" d="M497.755,203.815C489.979,203.815 482.827,202.543 476.299,199.999C469.771,197.455 464.107,193.855 459.307,189.199C454.507,184.543 450.763,179.095 448.075,172.855C445.387,166.615 444.043,159.751 444.043,152.263C444.043,144.775 445.387,137.911 448.075,131.671C450.763,125.431 454.531,119.983 459.379,115.327C464.227,110.671 469.915,107.071 476.443,104.527C482.971,101.983 490.171,100.711 498.043,100.711C506.011,100.711 513.307,102.007 519.931,104.599C526.555,107.191 532.171,111.079 536.779,116.263L527.851,125.191C523.723,121.159 519.235,118.207 514.387,116.335C509.539,114.463 504.283,113.527 498.619,113.527C492.859,113.527 487.507,114.487 482.563,116.407C477.619,118.327 473.347,121.015 469.747,124.471C466.147,127.927 463.363,132.031 461.395,136.783C459.427,141.535 458.443,146.695 458.443,152.263C458.443,157.735 459.427,162.847 461.395,167.599C463.363,172.351 466.147,176.479 469.747,179.983C473.347,183.487 477.595,186.199 482.491,188.119C487.387,190.039 492.715,190.999 498.475,190.999C503.851,190.999 509.011,190.159 513.955,188.479C518.899,186.799 523.483,183.991 527.707,180.055L535.915,190.999C530.923,195.223 525.091,198.415 518.419,200.575C511.747,202.735 504.859,203.815 497.755,203.815ZM535.915,190.999L522.091,189.127L522.091,151.687L535.915,151.687L535.915,190.999Z" style="fill:rgb(38,50,56);fill-rule:nonzero;"/>
    </g>
    <g id="logo" transform="matrix(1,0,0,1,-163.75,-356.32)">
        <g id="p3" transform="matrix(1,0,0,1,-7,0)">
            <path d="M191.378,558.779L171.654,528.032L274.917,357.28L362.126,500.573L326.549,500.573L275.78,420.693L191.378,558.779Z" style="fill:rgb(120,144,156);stroke:rgb(120,144,156);stroke-width:1px;"/>
        </g>
        <g id="p2" transform="matrix(1,0,0,1,-7,0)">
            <path d="M275.691,357.28L362.512,500.766L260.723,500.395L241.541,532.752L423.479,533.14L318.463,356.82L275.691,357.28Z" style="fill:rgb(84,110,122);fill-opacity:0.99;stroke:rgb(84,110,122);stroke-width:1px;"/>
        </g>
        <g id="p1" transform="matrix(1,0,0,1,-7,0)">
            <path d="M423.045,533.06L405.448,559.166L192.152,558.779L275.691,421.481L292.321,447.78L241.076,533.447L423.045,533.06Z" style="fill:rgb(38,50,56);fill-opacity:0.99;stroke:rgb(38,50,56);stroke-width:1px;"/>
        </g>
    </g>
</svg>
