<?xml version="1.0" encoding="UTF-8" standalone="no"?>
<!DOCTYPE svg PUBLIC "-//W3C//DTD SVG 1.1//EN" "http://www.w3.org/Graphics/SVG/1.1/DTD/svg11.dtd">
<svg width="100%" height="100%" viewBox="0 0 429 163" version="1.1" xmlns="http://www.w3.org/2000/svg" xmlns:xlink="http://www.w3.org/1999/xlink" xml:space="preserve" xmlns:serif="http://www.serif.com/" style="fill-rule:evenodd;clip-rule:evenodd;stroke-linejoin:round;stroke-miterlimit:2;">
    <g id="tsg" transform="matrix(1.57735,0,0,1.57735,-418.079,-158.856)">
        <path id="t" d="M299.611,202.663L299.611,114.391L265.051,114.391L265.051,101.863L348.427,101.863L348.427,114.391L313.867,114.391L313.867,202.663L299.611,202.663Z" style="fill:rgb(38,50,56);fill-rule:nonzero;"/>
        <path id="s" d="M392.203,203.815C384.523,203.815 377.179,202.639 370.171,200.287C363.163,197.935 357.643,194.887 353.611,191.143L358.939,179.911C362.779,183.271 367.675,186.055 373.627,188.263C379.579,190.471 385.771,191.575 392.203,191.575C398.059,191.575 402.811,190.903 406.459,189.559C410.107,188.215 412.795,186.367 414.523,184.015C416.251,181.663 417.115,178.999 417.115,176.023C417.115,172.567 415.987,169.783 413.731,167.671C411.475,165.559 408.547,163.855 404.947,162.559C401.347,161.263 397.387,160.135 393.067,159.175C388.747,158.215 384.403,157.087 380.035,155.791C375.667,154.495 371.683,152.839 368.083,150.823C364.483,148.807 361.579,146.095 359.371,142.687C357.163,139.279 356.059,134.887 356.059,129.511C356.059,124.327 357.427,119.551 360.163,115.183C362.899,110.815 367.123,107.311 372.835,104.671C378.547,102.031 385.819,100.711 394.651,100.711C400.507,100.711 406.315,101.479 412.075,103.015C417.835,104.551 422.827,106.759 427.051,109.639L422.299,121.159C417.979,118.279 413.419,116.191 408.619,114.895C403.819,113.599 399.163,112.951 394.651,112.951C388.987,112.951 384.331,113.671 380.683,115.111C377.035,116.551 374.371,118.471 372.691,120.871C371.011,123.271 370.171,125.959 370.171,128.935C370.171,132.487 371.299,135.319 373.555,137.431C375.811,139.543 378.739,141.223 382.339,142.471C385.939,143.719 389.899,144.847 394.219,145.855C398.539,146.863 402.883,147.991 407.251,149.239C411.619,150.487 415.603,152.119 419.203,154.135C422.803,156.151 425.707,158.839 427.915,162.199C430.123,165.559 431.227,169.879 431.227,175.159C431.227,180.247 429.835,184.975 427.051,189.343C424.267,193.711 419.971,197.215 414.163,199.855C408.355,202.495 401.035,203.815 392.203,203.815Z" style="fill:rgb(38,50,56);fill-rule:nonzero;"/>
        <path id="g" d="M497.755,203.815C489.979,203.815 482.827,202.543 476.299,199.999C469.771,197.455 464.107,193.855 459.307,189.199C454.507,184.543 450.763,179.095 448.075,172.855C445.387,166.615 444.043,159.751 444.043,152.263C444.043,144.775 445.387,137.911 448.075,131.671C450.763,125.431 454.531,119.983 459.379,115.327C464.227,110.671 469.915,107.071 476.443,104.527C482.971,101.983 490.171,100.711 498.043,100.711C506.011,100.711 513.307,102.007 519.931,104.599C526.555,107.191 532.171,111.079 536.779,116.263L527.851,125.191C523.723,121.159 519.235,118.207 514.387,116.335C509.539,114.463 504.283,113.527 498.619,113.527C492.859,113.527 487.507,114.487 482.563,116.407C477.619,118.327 473.347,121.015 469.747,124.471C466.147,127.927 463.363,132.031 461.395,136.783C459.427,141.535 458.443,146.695 458.443,152.263C458.443,157.735 459.427,162.847 461.395,167.599C463.363,172.351 466.147,176.479 469.747,179.983C473.347,183.487 477.595,186.199 482.491,188.119C487.387,190.039 492.715,190.999 498.475,190.999C503.851,190.999 509.011,190.159 513.955,188.479C518.899,186.799 523.483,183.991 527.707,180.055L535.915,190.999C530.923,195.223 525.091,198.415 518.419,200.575C511.747,202.735 504.859,203.815 497.755,203.815ZM535.915,190.999L522.091,189.127L522.091,151.687L535.915,151.687L535.915,190.999Z" style="fill:rgb(38,50,56);fill-rule:nonzero;"/>
    </g>
</svg>
